# xmcd CD database file
#
# Track frame offsets:
#	150
#	14044
#	26696
#	43398
#	56914
#	68567
#	82596
#	97111
#	111545
#	127410
#	139576
#	152417
#	163503
#	178909
#	192209
#	208884
#	222103
#	238805
#	251187
#	266512
#
# Disc length: 3763 seconds
#
# Revision: 0
# Processed by: cddbd v1.5.2PL0 Copyright (c) Steve Scherf et al.
# Submitted via: CDex 1.51
#
DISCID=330eb114
DTITLE=Luois Amstrong - The Good Book
DYEAR=2009
DGENRE=Jazz
TTITLE0=Nobody knows the trouble i've seen
TTITLE1=Shadrack
TTITLE2=Go down moses
TTITLE3=Rock my soul
TTITLE4=Ezekiel saw de heel
TTITLE5=On my way
TTITLE6=Down by the riverside
TTITLE7=Swing low, sweet chariot
TTITLE8=Sometimes i feel like a mothereless child
TTITLE9=Jonah and the whale
TTITLE10=Didn't it rain
TTITLE11=This train
TTITLE12=Angel child
TTITLE13=And the angels sing
TTITLE14=Angel
TTITLE15=God night angel
TTITLE16=I married an angel
TTITLE17=A sinner kissed an angel
TTITLE18=Angela mia
TTITLE19=Fools rush in
EXTD=YEAR: 2009
EXTT0=
EXTT1=
EXTT2=
EXTT3=
EXTT4=
EXTT5=
EXTT6=
EXTT7=
EXTT8=
EXTT9=
EXTT10=
EXTT11=
EXTT12=
EXTT13=
EXTT14=
EXTT15=
EXTT16=
EXTT17=
EXTT18=
EXTT19=
PLAYORDER=
